<svg viewBox="0 0 1376 1024" stroke="currentColor" fill="currentColor"><path d="M0 155.936v-107.776h287.424l287.456 574.88h467.072l179.648-395.232h143.712l-251.52 503.008h-610.816l-287.424-574.88h-215.584z"></path><path d="M1113.824 892.48c0 49.6-40.224 89.824-89.824 89.824s-89.824-40.224-89.824-89.824c0-49.6 40.224-89.824 89.824-89.824s89.824 40.224 89.824 89.824z"></path><path d="M556.928 982.304c49.6 0 89.824-40.224 89.824-89.824s-40.224-89.824-89.824-89.824-89.824 40.224-89.824 89.824c0 49.6 40.224 89.824 89.824 89.824z"></path></svg>