<svg viewBox="0 0 992 1024" stroke="currentColor" fill="currentColor"><path d="M389.12 125.216c70.624 0 138.336 28.064 188.256 77.984s77.984 117.664 77.984 188.256c0 65.952-24.16 126.56-63.904 173.248l11.072 11.072h32.352l204.8 204.8-61.44 61.44-204.8-204.8v-32.352l-11.072-11.072c-48.32 41.216-109.76 63.872-173.248 63.904-70.624 0-138.336-28.064-188.256-77.984s-77.984-117.664-77.984-188.256c0-70.624 28.064-138.336 77.984-188.256s117.664-77.984 188.256-77.984zM389.12 207.136c-102.4 0-184.32 81.92-184.32 184.32s81.92 184.32 184.32 184.32c102.4 0 184.32-81.92 184.32-184.32s-81.92-184.32-184.32-184.32z"></path></svg>