<svg width="106" height="32" viewBox="0 0 106 32" fill="none" xmlns="http://www.w3.org/2000/svg">
<g clip-path="url(#clip0_4_2116)">
<path fill-rule="evenodd" clip-rule="evenodd" d="M64.9633 24.9302C58.817 29.4649 49.9068 31.8773 42.2334 31.8773C31.4794 31.8773 21.7965 27.898 14.468 21.2858C13.8927 20.7668 14.405 20.0555 15.098 20.4568C23.0035 25.0578 32.7809 27.8284 42.8784 27.8284C50.1586 27.7924 57.3603 26.3189 64.0697 23.4926C65.1092 23.0533 65.9797 24.1791 64.9633 24.9302Z" fill="#FF9900"/>
<path fill-rule="evenodd" clip-rule="evenodd" d="M67.52 22.0103C66.7341 21.0039 62.3238 21.5328 60.3424 21.7699C59.7422 21.8412 59.6493 21.3189 60.1899 20.9409C63.7082 18.4704 69.4748 19.1834 70.1381 20.0108C70.8013 20.8381 69.9689 26.6213 66.6695 29.3803C66.1621 29.8047 65.6746 29.5776 65.9051 29.0172C66.6529 27.1652 68.3109 23.0168 67.52 22.0103Z" fill="#FF9900"/>
<path fill-rule="evenodd" clip-rule="evenodd" d="M7.41966 0.162476C12.2793 0.162476 14.9073 4.33409 14.9073 9.63813C14.9073 14.7664 12.0041 18.8319 7.41966 18.8319C2.65116 18.8319 0.0546906 14.6603 0.0546906 9.46237C0.0513746 4.22797 2.67935 0.162476 7.41966 0.162476ZM7.4495 3.59129C5.03541 3.59129 4.88287 6.88082 4.88287 8.9318C4.88287 10.9828 4.85137 15.3666 7.41966 15.3666C9.95645 15.3666 10.0725 11.8317 10.0725 9.6746C10.0725 8.2603 10.0128 6.56248 9.58505 5.21947C9.21862 4.05222 8.48577 3.59129 7.44619 3.59129H7.4495Z" fill="white"/>
<path fill-rule="evenodd" clip-rule="evenodd" d="M21.2228 18.4787H17.9531C17.8054 18.4719 17.665 18.4122 17.5575 18.3106C17.4501 18.209 17.3828 18.072 17.3679 17.925V1.12081C17.3695 1.03966 17.3873 0.959657 17.4199 0.885374C17.4528 0.811089 17.4997 0.743988 17.5584 0.68792C17.6171 0.631852 17.6864 0.58792 17.762 0.55864C17.8377 0.52936 17.9185 0.515303 17.9996 0.517286H21.057C21.2079 0.522369 21.3518 0.582504 21.4614 0.686352C21.5711 0.790199 21.6389 0.930583 21.6522 1.08102V3.27625H21.7136C22.5078 1.15397 24.005 0.164124 26.0244 0.164124C28.0721 0.164124 29.3554 1.15895 30.2723 3.27625C31.0665 1.15397 32.8704 0.164124 34.7954 0.164124C36.1699 0.164124 37.6688 0.729517 38.584 2.00288C39.6236 3.41718 39.413 5.46817 39.413 7.27045V17.8818C39.4114 17.9631 39.3936 18.0432 39.361 18.1175C39.3283 18.1919 39.2812 18.259 39.2225 18.3153C39.1638 18.3715 39.0947 18.4156 39.0191 18.4451C38.9433 18.4746 38.8626 18.4888 38.7813 18.487H35.4984C35.3419 18.4802 35.1938 18.4141 35.0844 18.302C34.9752 18.1897 34.9126 18.0402 34.9098 17.8835V8.9749C34.9098 8.26858 34.9712 6.49946 34.817 5.82464C34.5732 4.69387 33.8404 4.37552 32.892 4.37552C32.4669 4.38857 32.0549 4.52607 31.7072 4.77098C31.3593 5.01589 31.0911 5.35746 30.9355 5.75335C30.6039 6.60226 30.6305 8.01656 30.6305 8.97159V17.8785C30.629 17.9598 30.6114 18.04 30.5787 18.1145C30.5462 18.1889 30.4991 18.2562 30.4404 18.3124C30.3817 18.3688 30.3124 18.4127 30.2367 18.4423C30.1609 18.4716 30.08 18.4857 29.9987 18.4837H26.7291C26.5728 18.4766 26.4249 18.4103 26.3156 18.2982C26.2063 18.1861 26.1437 18.0367 26.1405 17.8802V8.9749C26.1405 7.10133 26.4456 4.34236 24.1227 4.34236C21.7699 4.34236 21.8611 7.03003 21.8611 8.9749V17.8818C21.8586 17.9629 21.8401 18.0428 21.8064 18.1168C21.7729 18.1907 21.7252 18.2574 21.666 18.3129C21.6066 18.3683 21.537 18.4116 21.4609 18.4399C21.3848 18.4685 21.3039 18.4816 21.2228 18.4787Z" fill="white"/>
<path fill-rule="evenodd" clip-rule="evenodd" d="M51.8964 10.4539C51.8964 11.7289 51.9279 12.7934 51.2846 13.9275C50.764 14.8477 49.9366 15.4197 49.0181 15.4197C47.7629 15.4197 47.0284 14.463 47.0284 13.0454C47.0284 10.2566 49.5304 9.75088 51.8981 9.75088L51.8964 10.4539ZM55.2125 18.4356C55.107 18.5267 54.976 18.5829 54.8374 18.5966C54.6988 18.6102 54.5594 18.5807 54.4382 18.5119C53.3521 17.6083 53.1565 17.1855 52.5629 16.3299C50.7656 18.1538 49.4922 18.7109 47.1644 18.7109C44.4087 18.7109 42.2649 17.0097 42.2649 13.6075C42.2649 10.9546 43.7041 9.14238 45.755 8.25699C47.5325 7.47772 50.0129 7.33513 51.9113 7.1229V6.69679C51.9113 5.91751 51.9727 4.99565 51.5134 4.32249C51.1155 3.72062 50.3528 3.47192 49.6763 3.47192C48.4278 3.47192 47.3169 4.11192 47.045 5.43834C46.9886 5.73347 46.7731 6.02528 46.4763 6.04021L43.3028 5.69699C43.2247 5.68652 43.1495 5.66012 43.082 5.61943C43.0143 5.57876 42.9558 5.52468 42.91 5.46049C42.8641 5.39633 42.8319 5.32344 42.8154 5.24634C42.7988 5.16924 42.7983 5.08956 42.8137 5.01223C43.5432 1.16228 47.0201 0 50.1356 0C51.7273 0 53.8114 0.424459 55.0665 1.62985C56.6599 3.12207 56.5057 5.10342 56.5057 7.26715V12.3689C56.5057 13.9026 57.1441 14.5758 57.7426 15.4031C57.9515 15.6999 57.9979 16.0547 57.731 16.2719C57.0678 16.8323 55.874 17.8653 55.2207 18.4473L55.2125 18.4356Z" fill="white"/>
<path fill-rule="evenodd" clip-rule="evenodd" d="M60.4833 3.48183V1.081C60.4808 1.0004 60.4947 0.920141 60.5244 0.84517C60.5541 0.770199 60.5989 0.702108 60.6559 0.64509C60.7129 0.588074 60.7811 0.543344 60.856 0.51366C60.931 0.483976 61.0112 0.469966 61.0918 0.472498H71.8524C71.9335 0.469812 72.0144 0.483562 72.09 0.512915C72.1656 0.542271 72.2346 0.586627 72.2928 0.643315C72.3508 0.700003 72.3968 0.767851 72.4279 0.842782C72.4593 0.917714 72.4748 0.99818 72.4742 1.07934V3.13861C72.4742 3.48348 72.1807 3.93447 71.6634 4.65074L66.0908 12.6093C68.16 12.5612 70.3486 12.8696 72.2255 13.9274C72.3943 14.0198 72.536 14.155 72.636 14.3195C72.7362 14.4839 72.7912 14.6718 72.7958 14.8642V17.4309C72.7958 17.784 72.4095 18.1936 72.0033 17.9797C68.6872 16.2453 64.2951 16.0547 60.6325 18.0012C60.2578 18.2002 59.8665 17.7989 59.8665 17.4441V15.0035C59.8665 14.6138 59.8665 13.9457 60.2678 13.3455L66.7341 4.08037H61.1034C61.023 4.08351 60.9427 4.07033 60.8675 4.04163C60.7922 4.01294 60.7236 3.96932 60.6657 3.91339C60.6077 3.85749 60.5617 3.79042 60.5304 3.71625C60.4991 3.64207 60.483 3.56234 60.4833 3.48183Z" fill="white"/>
<path fill-rule="evenodd" clip-rule="evenodd" d="M81.741 0.162476C86.6006 0.162476 89.2286 4.33409 89.2286 9.63813C89.2286 14.7664 86.3254 18.8319 81.741 18.8319C76.9725 18.8319 74.376 14.6603 74.376 9.46237C74.3727 4.22797 77.0006 0.162476 81.741 0.162476ZM81.7708 3.59129C79.3567 3.59129 79.2042 6.88082 79.2042 8.9318C79.2042 10.9828 79.1727 15.3666 81.741 15.3666C84.2777 15.3666 84.3938 11.8317 84.3938 9.6746C84.3938 8.2603 84.3341 6.56248 83.9063 5.21947C83.5399 4.05222 82.8071 3.59129 81.7675 3.59129H81.7708Z" fill="white"/>
<path fill-rule="evenodd" clip-rule="evenodd" d="M95.5258 18.4787H92.2644C92.1082 18.4716 91.9605 18.4053 91.8516 18.293C91.7425 18.181 91.6803 18.0316 91.6775 17.8752V1.06444C91.6952 0.911335 91.7695 0.770364 91.8857 0.669153C92.002 0.567942 92.1518 0.513782 92.3059 0.517286H95.3368C95.4716 0.522446 95.6012 0.571099 95.706 0.655972C95.811 0.740845 95.8856 0.85738 95.9187 0.988165V3.55811H95.9801C96.897 1.26008 98.1803 0.164124 100.442 0.164124C101.908 0.164124 103.345 0.694693 104.255 2.14381C105.119 3.48682 105.119 5.74837 105.119 7.3749V17.9482C105.097 18.0977 105.021 18.234 104.906 18.3317C104.791 18.4293 104.643 18.4816 104.492 18.4787H101.21C101.066 18.4721 100.929 18.4154 100.822 18.3186C100.716 18.2217 100.646 18.0908 100.626 17.9482V8.829C100.626 6.99024 100.84 4.30257 98.5782 4.30257C97.784 4.30257 97.0512 4.83314 96.6847 5.64558C96.2255 6.6719 96.1641 7.69656 96.1641 8.829V17.8769C96.1577 18.0409 96.0872 18.1955 95.9678 18.3081C95.8484 18.4207 95.6898 18.4819 95.5258 18.4787Z" fill="white"/>
</g>
<defs>
<clipPath id="clip0_4_2116">
<rect width="105.119" height="32" fill="white"/>
</clipPath>
</defs>
</svg>
